<?xml version="1.0" encoding="UTF-8" standalone="no"?><!DOCTYPE svg PUBLIC "-//W3C//DTD SVG 1.1//EN" "http://www.w3.org/Graphics/SVG/1.1/DTD/svg11.dtd"><svg width="100%" height="100%" viewBox="0 0 1080 1080" version="1.1" xmlns="http://www.w3.org/2000/svg" xmlns:xlink="http://www.w3.org/1999/xlink" xml:space="preserve" xmlns:serif="http://www.serif.com/" style="fill-rule:evenodd;clip-rule:evenodd;stroke-linejoin:round;stroke-miterlimit:2;"><g id="Background"><path d="M0,0l1079.999,0c1.22,2.266 0,2.466 0,32.168l0,1047.831c-2.266,1.22 -2.466,0 -32.167,0l-1047.832,0c-1.083,-2.012 0,-4.57 0,-6.854l0,-1073.145Z" style="fill:#29aede;"/><path d="M570.697,234.897c1.605,3.592 7.417,4.116 7.581,8.256c1.143,28.901 -0.046,44.86 1.967,77.497c0.144,2.331 -5.13,5.396 -5.271,5.827c-1.275,-0.05 -1.219,-0.259 -3.126,-0.122c-86.093,6.169 -142.545,18.847 -156.206,94.401c-14.14,78.202 90.172,84.27 196.291,160.385c125.209,89.807 82.649,202.74 61.598,240.156c-52.326,93.005 -126.675,103.401 -163.888,105.42c-73.367,3.981 -264.425,-49.58 -241.206,-221.287c0.162,-1.198 2.267,-2.87 3.04,0.822c7.591,36.219 16.245,76.187 59.234,111.603c44.207,36.42 120.178,50.904 149.186,52.435c118.289,6.242 152.579,-107.845 136.166,-161.684c-31.531,-103.429 -301.814,-112.688 -291.101,-283.318c11.448,-182.347 195.835,-181.946 245.734,-190.392Z" style="fill:#ff4d4a;"/><path d="M572.331,244.034c-0.151,-2.861 -2.052,-42.033 -3.686,-74.983c-1.007,-20.299 -0.187,-20.325 -0.121,-20.336c2.298,-0.393 216.835,95.945 262.436,115.488c-3.234,0.331 -140.953,20.805 -204.831,5.447l-53.798,-25.615Z" style="fill:#ff4d4a;"/><path d="M830.723,265.56c-21.152,10.721 -140.006,78.172 -151.637,84.778c-6.772,3.846 -71.619,40.676 -84.907,47.617c-12.794,6.684 -13.316,8.161 -14.42,6.38c-0.5,-0.807 -4.165,-86.498 -4.337,-90.889c0.259,-0.239 -0.298,-0.819 -0.038,-1.058c0.077,-0.071 9.423,-28.946 13.091,-30.232c14.181,-4.969 219.887,-11.601 229.182,-15.634c4.19,-1.818 5.553,-2.427 5.909,-2.584l7.156,1.621Z" style="fill:#ff4d4a;"/><path d="M570.697,234.897l1.123,0.458c63.878,15.358 259.409,28.355 258.947,29.936c-0.151,0.516 -7.111,1.297 -11.301,3.115c-9.296,4.033 -226.323,50.848 -240.504,55.817c-3.668,1.285 -3.95,1.125 -4.027,1.196c-0.259,0.239 0.298,0.819 0.038,1.058c-1.622,-19.475 2.115,3.125 0,0c0.141,-0.431 1.108,-0.626 0.964,-2.957c-2.014,-32.637 1.414,-37.271 -5.91,-36.667c-59.92,4.941 -190.343,12.063 -195.267,143.843c-5.341,142.956 325.53,129.805 285.875,333.773c-13.737,70.659 -84.021,158.917 -207.027,133.546c-72.84,-15.024 -150.005,-53.498 -173.869,-125.298c-1.254,-3.774 -8.391,-25.248 -9.669,-48.762c-0.057,-1.05 -1.314,-18.685 -0.821,-19.613c3.984,7.933 0.531,66.832 39.194,111.923c52.99,61.8 154.708,81.768 198.115,78.33c122.639,-9.713 159.036,-132.527 144.094,-189.462c-37.603,-143.274 -300.574,-134.577 -285.564,-283.556c13.676,-135.736 139.445,-139.169 205.87,-146.5c4.071,-0.449 2.392,-3.543 1.249,-32.443c-0.164,-4.14 0.094,-4.146 -1.511,-7.738c0.599,-2.455 0.962,27.613 0,0Z" style="fill:#ff817f;"/></g></svg>